HIERARCHY
ROOT Haolin_28_06:Solving:Hips
{
	OFFSET 0.000000 0.000000 0.000000
	CHANNELS 6 Xposition Yposition Zposition Xrotation Yrotation Zrotation
	JOINT Haolin_28_06:Solving:Spine
	{
		OFFSET 0.000000 -12.181966 2.015561
		CHANNELS 6 Xposition Yposition Zposition Xrotation Yrotation Zrotation
		JOINT Haolin_28_06:Solving:Spine1
		{
			OFFSET 0.000000 -8.890296 1.567602
			CHANNELS 6 Xposition Yposition Zposition Xrotation Yrotation Zrotation
			JOINT Haolin_28_06:Solving:Spine2
			{
				OFFSET 0.000000 -8.993092 0.786796
				CHANNELS 6 Xposition Yposition Zposition Xrotation Yrotation Zrotation
				JOINT Haolin_28_06:Solving:Spine3
				{
					OFFSET 0.000000 -9.027443 0.000000
					CHANNELS 6 Xposition Yposition Zposition Xrotation Yrotation Zrotation
					JOINT Haolin_28_06:Solving:Neck
					{
						OFFSET 0.000000 -11.606712 -1.160669
						CHANNELS 6 Xposition Yposition Zposition Xrotation Yrotation Zrotation
						JOINT Haolin_28_06:Solving:Neck1
						{
							OFFSET 0.000000 -7.471592 -0.653680
							CHANNELS 6 Xposition Yposition Zposition Xrotation Yrotation Zrotation
							JOINT Haolin_28_06:Solving:Head
							{
								OFFSET 0.000000 -7.386181 -1.302382
								CHANNELS 6 Xposition Yposition Zposition Xrotation Yrotation Zrotation
								JOINT Haolin_28_06:Solving:HeadEnd
								{
									OFFSET 0.000000 -9.728081 0.000002
									CHANNELS 6 Xposition Yposition Zposition Xrotation Yrotation Zrotation
									End Site
									{
										OFFSET 0.000000 -9.728081 0.000002
									}
								}
							}
						}
					}
					JOINT Haolin_28_06:Solving:RightShoulder
					{
						OFFSET 0.000000 -8.290508 -5.270916
						CHANNELS 6 Xposition Yposition Zposition Xrotation Yrotation Zrotation
						JOINT Haolin_28_06:Solving:RightArm
						{
							OFFSET -19.261074 -0.000008 0.000000
							CHANNELS 6 Xposition Yposition Zposition Xrotation Yrotation Zrotation
							JOINT Haolin_28_06:Solving:RightForeArm
							{
								OFFSET -30.691700 -0.000011 0.000000
								CHANNELS 6 Xposition Yposition Zposition Xrotation Yrotation Zrotation
								JOINT Haolin_28_06:Solving:RightHand
								{
									OFFSET -20.216934 -0.000008 0.000000
									CHANNELS 6 Xposition Yposition Zposition Xrotation Yrotation Zrotation
									JOINT Haolin_28_06:Solving:RightHandThumb1
									{
										OFFSET -4.948814 2.881329 -3.679893
										CHANNELS 6 Xposition Yposition Zposition Xrotation Yrotation Zrotation
										End Site
										{
											OFFSET -7.039886 -0.000004 -7.104978
										}
									}
									JOINT Haolin_28_06:Solving:RightHandMiddle1
									{
										OFFSET -13.196846 -0.000004 0.084595
										CHANNELS 6 Xposition Yposition Zposition Xrotation Yrotation Zrotation
										End Site
										{
											OFFSET -10.002037 -0.000004 0.000000
										}
									}
								}
							}
						}
					}
					JOINT Haolin_28_06:Solving:LeftShoulder
					{
						OFFSET 0.000000 -8.290508 -5.270916
						CHANNELS 6 Xposition Yposition Zposition Xrotation Yrotation Zrotation
						JOINT Haolin_28_06:Solving:LeftArm
						{
							OFFSET 19.261074 -0.000008 0.000000
							CHANNELS 6 Xposition Yposition Zposition Xrotation Yrotation Zrotation
							JOINT Haolin_28_06:Solving:LeftForeArm
							{
								OFFSET 30.691700 -0.000011 0.000000
								CHANNELS 6 Xposition Yposition Zposition Xrotation Yrotation Zrotation
								JOINT Haolin_28_06:Solving:LeftHand
								{
									OFFSET 20.216934 -0.000008 0.000000
									CHANNELS 6 Xposition Yposition Zposition Xrotation Yrotation Zrotation
									JOINT Haolin_28_06:Solving:LeftHandThumb1
									{
										OFFSET 4.948814 2.881329 -3.679893
										CHANNELS 6 Xposition Yposition Zposition Xrotation Yrotation Zrotation
										End Site
										{
											OFFSET 7.039886 -0.000004 -7.104978
										}
									}
									JOINT Haolin_28_06:Solving:LeftHandMiddle1
									{
										OFFSET 13.196846 -0.000004 0.084595
										CHANNELS 6 Xposition Yposition Zposition Xrotation Yrotation Zrotation
										End Site
										{
											OFFSET 10.002037 -0.000004 0.000000
										}
									}
								}
							}
						}
					}
				}
			}
		}
	}
	JOINT Haolin_28_06:Solving:RightUpLeg
	{
		OFFSET -10.083070 0.000000 0.000000
		CHANNELS 6 Xposition Yposition Zposition Xrotation Yrotation Zrotation
		JOINT Haolin_28_06:Solving:RightLeg
		{
			OFFSET 0.000000 47.042522 -0.000008
			CHANNELS 6 Xposition Yposition Zposition Xrotation Yrotation Zrotation
			JOINT Haolin_28_06:Solving:RightFoot
			{
				OFFSET 0.000000 38.766415 -0.000006
				CHANNELS 6 Xposition Yposition Zposition Xrotation Yrotation Zrotation
				JOINT Haolin_28_06:Solving:RightForeFoot
				{
					OFFSET 0.000000 3.531212 -0.000000
					CHANNELS 6 Xposition Yposition Zposition Xrotation Yrotation Zrotation
					JOINT Haolin_28_06:Solving:RightToeBase
					{
						OFFSET 0.000000 0.000000 -13.829352
						CHANNELS 6 Xposition Yposition Zposition Xrotation Yrotation Zrotation
						JOINT Haolin_28_06:Solving:RightToeBaseEnd
						{
							OFFSET 0.000000 0.000000 -4.034167
							CHANNELS 6 Xposition Yposition Zposition Xrotation Yrotation Zrotation
							End Site
							{
								OFFSET 0.000000 -4.034164 0.000004
							}
						}
					}
				}
			}
		}
	}
	JOINT Haolin_28_06:Solving:LeftUpLeg
	{
		OFFSET 10.083070 0.000000 0.000000
		CHANNELS 6 Xposition Yposition Zposition Xrotation Yrotation Zrotation
		JOINT Haolin_28_06:Solving:LeftLeg
		{
			OFFSET 0.000000 47.042522 -0.000008
			CHANNELS 6 Xposition Yposition Zposition Xrotation Yrotation Zrotation
			JOINT Haolin_28_06:Solving:LeftFoot
			{
				OFFSET 0.000000 38.766415 -0.000006
				CHANNELS 6 Xposition Yposition Zposition Xrotation Yrotation Zrotation
				JOINT Haolin_28_06:Solving:LeftForeFoot
				{
					OFFSET 0.000000 3.531212 -0.000000
					CHANNELS 6 Xposition Yposition Zposition Xrotation Yrotation Zrotation
					JOINT Haolin_28_06:Solving:LeftToeBase
					{
						OFFSET 0.000000 0.000000 -13.829352
						CHANNELS 6 Xposition Yposition Zposition Xrotation Yrotation Zrotation
						JOINT Haolin_28_06:Solving:LeftToeBaseEnd
						{
							OFFSET 0.000000 0.000000 -4.855067
							CHANNELS 6 Xposition Yposition Zposition Xrotation Yrotation Zrotation
							End Site
							{
								OFFSET 0.000000 -4.855064 0.000004
							}
						}
					}
				}
			}
		}
	}
}
MOTION
Frames: 5
Frame Time: 0.041667
-9.825646 22.927197 -92.625847 29.744364 82.091634 63.887329 0.000002 -12.181947 2.015563 13.617090 0.238590 -5.476920 -0.000001 -8.890311 1.567600 0.307814 0.451409 -0.907279 0.000003 -8.993121 0.786797 -0.350705 6.707705 -2.301043 -0.000006 -9.027430 0.000002 0.452145 2.000425 -5.195450 0.000000 -11.606664 -1.160674 -4.490782 21.318979 -6.043879 0.000001 -7.471620 -0.653682 -1.274540 35.518678 0.487360 0.000006 -7.386203 -1.302398 5.816306 2.545586 -4.013719 0.000002 -9.728088 0.000001 0.000003 -0.000003 0.000000 -0.000002 -8.290466 -5.270925 -0.000008 21.303881 6.904388 -19.261063 -0.000045 -0.000000 -21.236854 -45.608042 -79.886302 -30.691706 -0.000012 -0.000003 -23.801582 -19.048928 -8.191982 -20.216930 -0.000013 0.000007 2.556211 -12.205047 11.924023 -4.948779 2.881318 -3.679864 0.000001 -0.000005 0.000006 -13.196813 -0.000010 0.084589 0.000002 -0.000008 0.000004 -0.000001 -8.290443 -5.270926 -0.000002 -6.587844 -11.545815 19.261059 -0.000022 0.000008 11.382991 42.028790 64.221434 30.691679 -0.000008 -0.000015 13.142625 14.803334 -3.414077 20.216927 -0.000013 -0.000005 -0.055956 -0.838094 -3.819555 4.948797 2.881326 -3.679876 -0.000007 0.000002 -0.000003 13.196848 0.000006 0.084600 -0.000008 0.000003 0.000003 -10.083072 0.000005 0.000002 -4.630625 -28.727229 -6.278963 -0.000002 47.042526 -0.000001 6.147856 -0.000000 0.000000 -0.000002 38.766430 0.000000 4.725667 -12.835943 -24.317046 0.000002 3.531204 0.000002 0.000002 0.000001 -0.000001 0.000003 0.000000 -13.829346 1.145461 -0.000012 0.000000 0.000003 -0.000017 -4.034167 -0.000004 -0.000006 0.000002 10.083072 -0.000002 0.000003 10.414557 -31.239455 -6.918487 0.000001 47.042515 -0.000010 17.558794 0.000009 -0.000005 -0.000004 38.766422 -0.000008 -8.250780 -23.995911 7.324290 0.000002 3.531212 0.000008 0.000001 -0.000004 0.000001 -0.000002 0.000010 -13.829351 -3.289543 -0.000002 0.000001 0.000002 -0.000000 -4.855069 -0.000001 0.000001 -0.000000 
-9.730947 22.973169 -92.630280 26.331322 82.345170 67.205496 0.000002 -12.181964 2.015564 13.611479 0.265376 -5.404743 0.000000 -8.890301 1.567603 0.289671 0.451504 -0.904046 0.000002 -8.993105 0.786796 -0.360770 6.797143 -2.285304 0.000003 -9.027436 0.000000 0.465750 2.020884 -5.227119 -0.000001 -11.606734 -1.160674 -4.516862 21.385852 -6.032370 -0.000001 -7.471600 -0.653675 -1.246989 35.488696 0.463767 -0.000003 -7.386199 -1.302384 5.867016 2.543288 -4.029358 0.000003 -9.728111 0.000003 0.000004 0.000001 0.000000 0.000001 -8.290493 -5.270923 -0.000013 21.341578 6.897135 -19.261072 -0.000014 0.000007 -20.957732 -45.387184 -79.766112 -30.691736 -0.000008 0.000003 -23.648796 -18.804762 -8.034550 -20.216911 -0.000011 0.000001 2.515136 -12.144023 11.794012 -4.948807 2.881324 -3.679864 -0.000002 -0.000007 0.000009 -13.196819 -0.000011 0.084605 -0.000000 -0.000001 0.000005 0.000000 -8.290485 -5.270924 -0.000004 -6.446195 -11.654686 19.261059 -0.000006 0.000005 10.379173 41.981058 64.602115 30.691669 -0.000019 0.000003 12.310809 15.344693 -3.305159 20.216919 -0.000012 0.000001 -0.048066 -0.692121 -3.972730 4.948791 2.881346 -3.679885 -0.000004 -0.000005 -0.000002 13.196842 0.000017 0.084588 0.000002 -0.000004 -0.000005 -10.083068 0.000004 0.000003 -4.654046 -28.723647 -6.135463 0.000002 47.042538 0.000006 6.047692 -0.000002 -0.000001 -0.000001 38.766434 -0.000006 4.854281 -13.079266 -24.549184 0.000001 3.531212 -0.000000 -0.000000 0.000003 0.000003 -0.000002 0.000013 -13.829359 1.214026 -0.000001 0.000002 -0.000006 0.000008 -4.034174 -0.000000 0.000001 0.000001 10.083066 -0.000000 0.000001 10.665334 -31.442106 -6.575049 0.000002 47.042526 -0.000010 17.322183 0.000002 -0.000000 0.000001 38.766438 -0.000006 -8.167347 -24.174893 7.359582 -0.000002 3.531227 -0.000004 -0.000001 -0.000002 0.000001 0.000001 -0.000019 -13.829359 -3.212096 -0.000009 0.000000 -0.000001 -0.000000 -4.855059 -0.000000 0.000000 0.000000 
-9.627057 23.023914 -92.632866 22.589450 82.573961 70.813933 0.000005 -12.181952 2.015554 13.624478 0.276024 -5.290068 -0.000005 -8.890277 1.567601 0.268671 0.451146 -0.904976 -0.000003 -8.993106 0.786796 -0.372661 6.870285 -2.263696 0.000004 -9.027448 0.000003 0.473466 2.036220 -5.258360 0.000004 -11.606712 -1.160669 -4.558074 21.460944 -6.028327 0.000003 -7.471620 -0.653678 -1.221152 35.429031 0.436109 -0.000003 -7.386190 -1.302387 5.926931 2.538666 -4.045205 0.000007 -9.728088 0.000004 0.000002 0.000003 -0.000001 -0.000002 -8.290508 -5.270918 -0.000010 21.394430 6.884458 -19.261076 -0.000015 0.000002 -20.643347 -45.353265 -79.615021 -30.691725 -0.000009 0.000003 -23.383885 -18.427306 -7.783166 -20.216951 -0.000017 -0.000011 2.501384 -12.290017 11.597729 -4.948801 2.881326 -3.679866 0.000000 0.000007 0.000009 -13.196842 -0.000007 0.084614 -0.000000 -0.000000 0.000005 -0.000000 -8.290524 -5.270916 -0.000002 -6.301900 -11.760531 19.261068 -0.000003 0.000009 9.301169 41.881012 65.064997 30.691671 -0.000020 0.000006 11.476863 15.931360 -3.189746 20.216944 -0.000001 0.000000 -0.040457 -0.559937 -4.131727 4.948792 2.881320 -3.679872 0.000003 0.000000 0.000000 13.196832 0.000001 0.084599 0.000003 -0.000000 0.000002 -10.083067 0.000017 -0.000007 -4.674968 -28.704017 -5.953332 0.000002 47.042534 -0.000009 5.982400 -0.000004 -0.000001 -0.000001 38.766422 -0.000003 4.970539 -13.370606 -24.852202 0.000001 3.531220 0.000001 -0.000001 0.000006 0.000000 0.000006 0.000011 -13.829357 1.210129 -0.000007 0.000005 0.000000 0.000016 -4.034173 0.000003 -0.000002 0.000001 10.083076 0.000009 -0.000004 10.918935 -31.662144 -6.191830 0.000003 47.042526 -0.000009 17.119673 0.000002 0.000001 -0.000004 38.766415 -0.000009 -8.035983 -24.316145 7.348578 -0.000005 3.531220 0.000000 0.000000 0.000005 -0.000001 -0.000004 -0.000011 -13.829352 -3.294537 0.000004 0.000001 -0.000007 -0.000008 -4.855067 0.000000 0.000008 -0.000000 
-9.530874 23.078306 -92.633347 19.054027 82.769660 74.232033 0.000002 -12.181941 2.015564 13.611699 0.294095 -5.188010 0.000001 -8.890288 1.567600 0.242756 0.454871 -0.919381 0.000002 -8.993112 0.786798 -0.383103 6.958055 -2.255803 0.000002 -9.027439 -0.000001 0.487976 2.054750 -5.271987 0.000000 -11.606709 -1.160662 -4.593357 21.516009 -6.022886 -0.000002 -7.471582 -0.653677 -1.193024 35.387193 0.407939 0.000002 -7.386156 -1.302367 5.994513 2.535082 -4.069104 -0.000005 -9.728081 0.000001 -0.000001 -0.000003 -0.000001 0.000001 -8.290512 -5.270907 -0.000014 21.419574 6.854523 -19.261076 -0.000000 0.000004 -20.253399 -45.306854 -79.447087 -30.691719 -0.000006 -0.000002 -23.572270 -18.190177 -7.756222 -20.216925 -0.000013 -0.000001 2.467237 -12.158743 11.561804 -4.948791 2.881328 -3.679873 -0.000000 -0.000000 0.000011 -13.196844 -0.000009 0.084595 -0.000001 0.000001 0.000003 0.000000 -8.290508 -5.270908 -0.000006 -6.171329 -11.837993 19.261082 -0.000005 0.000003 8.172249 41.728658 65.571216 30.691690 -0.000015 0.000007 10.555251 16.569349 -3.041751 20.216927 -0.000003 -0.000018 -0.034034 -0.465798 -4.178593 4.948798 2.881314 -3.679879 -0.000008 0.000002 -0.000002 13.196839 -0.000019 0.084588 -0.000003 -0.000004 0.000001 -10.083068 0.000022 0.000002 -4.714708 -28.686590 -5.784732 -0.000001 47.042519 0.000005 5.918665 0.000003 -0.000001 0.000003 38.766415 -0.000005 5.077224 -13.676319 -25.149241 0.000002 3.531205 0.000004 -0.000001 0.000000 -0.000002 0.000006 0.000011 -13.829352 1.075670 -0.000004 -0.000001 0.000004 -0.000015 -4.034163 -0.000001 -0.000005 0.000000 10.083075 0.000022 0.000003 11.148439 -31.868809 -5.832598 0.000003 47.042519 -0.000003 16.906347 0.000004 -0.000003 -0.000005 38.766399 -0.000011 -7.959984 -24.447262 7.380007 0.000004 3.531212 0.000004 -0.000001 -0.000007 0.000000 0.000003 -0.000013 -13.829354 -3.234960 -0.000000 0.000000 -0.000002 0.000000 -4.855069 0.000001 -0.000001 0.000000 
-9.436421 23.124630 -92.635567 15.517266 82.911680 77.682282 -0.000007 -12.181973 2.015561 13.612807 0.315603 -5.117044 0.000001 -8.890283 1.567600 0.239459 0.459278 -0.935058 -0.000002 -8.993111 0.786797 -0.398113 7.048532 -2.245214 0.000001 -9.027455 0.000001 0.483385 2.070558 -5.300235 -0.000008 -11.606709 -1.160661 -4.611988 21.568523 -6.033935 0.000009 -7.471591 -0.653675 -1.174225 35.308489 0.378058 -0.000001 -7.386193 -1.302373 6.028497 2.533031 -4.096411 -0.000002 -9.728088 -0.000008 0.000002 0.000002 -0.000001 0.000002 -8.290531 -5.270903 -0.000008 21.440160 6.814986 -19.261074 -0.000026 0.000003 -19.891224 -45.262226 -79.300880 -30.691717 -0.000016 -0.000004 -23.665579 -17.918503 -7.679134 -20.216915 -0.000016 0.000002 2.441980 -12.055357 11.540556 -4.948805 2.881321 -3.679851 0.000001 -0.000000 0.000003 -13.196842 -0.000018 0.084617 -0.000001 0.000009 -0.000004 -0.000002 -8.290512 -5.270907 -0.000002 -6.060055 -11.877585 19.261047 0.000011 0.000006 7.057803 41.554478 66.082265 30.691700 -0.000015 0.000010 9.644260 17.282267 -2.890018 20.216923 -0.000006 -0.000004 -0.025240 -0.342221 -4.217379 4.948810 2.881344 -3.679873 -0.000005 0.000005 -0.000005 13.196829 -0.000006 0.084615 -0.000002 0.000002 -0.000002 -10.083077 -0.000009 -0.000003 -4.763916 -28.655099 -5.661309 -0.000001 47.042553 -0.000010 5.880079 0.000002 -0.000001 0.000002 38.766449 -0.000007 5.150420 -13.937507 -25.288079 -0.000002 3.531189 -0.000002 -0.000003 -0.000004 0.000001 -0.000001 0.000019 -13.829348 1.269697 -0.000003 0.000004 0.000010 -0.000000 -4.034173 0.000000 -0.000003 0.000000 10.083061 0.000007 -0.000000 11.350928 -32.099147 -5.536429 0.000007 47.042519 -0.000006 16.726920 -0.000001 -0.000002 0.000005 38.766426 -0.000011 -7.897641 -24.523439 7.409916 -0.000002 3.531219 -0.000001 0.000001 -0.000001 -0.000002 -0.000005 0.000017 -13.829346 -3.215051 -0.000004 0.000000 0.000000 0.000007 -4.855067 -0.000001 0.000005 -0.000000 
